<svg width="22" height="23" viewBox="0 0 22 23" xmlns="http://www.w3.org/2000/svg">
<path fill-rule="evenodd" clip-rule="evenodd" d="M7.79771 2.5C4.57695 2.5 2 5.05499 2 8.16667V14.8333C2 17.945 4.57695 20.5 7.79771 20.5H14.2034C17.4232 20.5 20.001 17.9449 20 14.8336V8.16667C20 5.05499 17.423 2.5 14.2023 2.5H7.79771ZM0 8.16667C0 3.9139 3.50926 0.5 7.79771 0.5H14.2023C18.4907 0.5 22 3.9139 22 8.16667V14.833C22.0011 19.0861 18.4905 22.5 14.2034 22.5H7.79771C3.50926 22.5 0 19.0861 0 14.8333V8.16667ZM8.73466 7.72222C9.28695 7.72222 9.73466 8.16994 9.73466 8.72222V9.83333C9.73466 10.3856 9.28695 10.8333 8.73466 10.8333C8.18238 10.8333 7.73466 10.3856 7.73466 9.83333V8.72222C7.73466 8.16994 8.18238 7.72222 8.73466 7.72222ZM13.2665 7.72222C13.8188 7.72222 14.2665 8.16994 14.2665 8.72222V9.83333C14.2665 10.3856 13.8188 10.8333 13.2665 10.8333C12.7142 10.8333 12.2665 10.3856 12.2665 9.83333V8.72222C12.2665 8.16994 12.7142 7.72222 13.2665 7.72222Z" />
<path d="M11.0006 14.3889C9.96068 14.3889 9.12051 14.0834 8.53759 13.7757L7.68733 13.2048C7.28828 12.8271 6.65854 12.842 6.2779 13.2393C5.6934 13.8494 5.93047 14.3968 6.67473 14.9576C6.892 15.1213 7.20459 15.3335 7.60381 15.5443C8.40144 15.9654 9.56155 16.3889 11.0006 16.3889C12.4403 16.3889 13.5931 15.965 14.3844 15.5418C14.7802 15.3302 15.0891 15.1169 15.3037 14.9522L15.3143 14.9441C15.4368 14.8501 15.5697 14.7482 15.6797 14.6406C16.074 14.2539 16.0666 13.6252 15.6799 13.2309C15.1455 12.686 14.5646 12.9984 14.0861 13.3656C13.9445 13.4742 13.7269 13.6254 13.4412 13.7782C12.8696 14.0839 12.0397 14.3889 11.0006 14.3889Z"/>
</svg>
