<svg width="21" height="19" viewBox="0 0 21 19"  xmlns="http://www.w3.org/2000/svg">
<path fill-rule="evenodd" clip-rule="evenodd" d="M6.8 2.5C4.32839 2.5 2.5 4.87386 2.5 7.26C2.5 8.40215 2.94922 9.5517 3.71099 10.6733C4.47184 11.7936 5.50716 12.8298 6.57976 13.7227C7.64848 14.6123 8.72658 15.3367 9.54766 15.8384C9.93634 16.0759 10.2635 16.2611 10.5 16.3883C10.7365 16.2611 11.0637 16.0759 11.4523 15.8384C12.2734 15.3367 13.3515 14.6123 14.4202 13.7227C15.4928 12.8298 16.5282 11.7936 17.289 10.6733C18.0508 9.5517 18.5 8.40215 18.5 7.26C18.5 4.87386 16.6716 2.5 14.2 2.5C12.756 2.5 11.821 3.2095 11.2572 3.86313C11.0673 4.08337 10.7908 4.21 10.5 4.21C10.2092 4.21 9.93271 4.08337 9.74275 3.86313C9.179 3.2095 8.24403 2.5 6.8 2.5ZM0.5 7.26C0.5 4.08614 2.93161 0.5 6.8 0.5C8.43081 0.5 9.64746 1.11245 10.5 1.8153C11.3525 1.11245 12.5692 0.5 14.2 0.5C18.0684 0.5 20.5 4.08614 20.5 7.26C20.5 8.93285 19.8442 10.4708 18.9435 11.797C18.0418 13.1246 16.8572 14.2964 15.6998 15.2598C14.5385 16.2265 13.3766 17.0064 12.4952 17.545C12.0538 17.8147 11.6784 18.0266 11.4032 18.1733C11.2663 18.2463 11.1494 18.3057 11.0586 18.3491C11.0145 18.3702 10.9676 18.3918 10.9234 18.4101C10.9025 18.4188 10.8698 18.432 10.8317 18.4447C10.8131 18.451 10.7814 18.4611 10.7422 18.4707L10.7415 18.4709C10.7165 18.477 10.6221 18.5 10.5 18.5C10.3779 18.5 10.2835 18.477 10.2585 18.4709L10.2578 18.4707C10.2186 18.4611 10.1869 18.451 10.1683 18.4447C10.1302 18.432 10.0975 18.4188 10.0766 18.4101C10.0324 18.3918 9.98549 18.3702 9.9414 18.3491C9.85056 18.3057 9.73365 18.2463 9.59684 18.1733C9.32164 18.0266 8.94623 17.8147 8.50484 17.545C7.62342 17.0064 6.46152 16.2265 5.30024 15.2598C4.14284 14.2964 2.95816 13.1246 2.05651 11.797C1.15578 10.4708 0.5 8.93285 0.5 7.26Z" />
</svg>
