<svg width="18" height="16" viewBox="0 0 18 16" xmlns="http://www.w3.org/2000/svg">
<path fill-rule="evenodd" clip-rule="evenodd" d="M5.91667 2.16667C3.85699 2.16667 2.33333 4.14489 2.33333 6.13333C2.33333 7.08512 2.70768 8.04308 3.34249 8.97776C3.97653 9.91129 4.8393 10.7749 5.73313 11.5189C6.62373 12.2602 7.52215 12.8639 8.20639 13.282C8.53028 13.4799 8.80293 13.6343 9 13.7402C9.19707 13.6343 9.46972 13.4799 9.79362 13.282C10.4778 12.8639 11.3763 12.2602 12.2669 11.5189C13.1607 10.7749 14.0235 9.91129 14.6575 8.97776C15.2923 8.04308 15.6667 7.08512 15.6667 6.13333C15.6667 4.14489 14.143 2.16667 12.0833 2.16667C10.88 2.16667 10.1008 2.75792 9.63104 3.30261C9.47274 3.48614 9.24237 3.59167 9 3.59167C8.75763 3.59167 8.52726 3.48614 8.36896 3.30261C7.89917 2.75792 7.12002 2.16667 5.91667 2.16667ZM0.666667 6.13333C0.666667 3.48845 2.69301 0.5 5.91667 0.5C7.27567 0.5 8.28955 1.01037 9 1.59608C9.71045 1.01037 10.7243 0.5 12.0833 0.5C15.307 0.5 17.3333 3.48845 17.3333 6.13333C17.3333 7.52738 16.7868 8.809 16.0362 9.91417C15.2849 11.0205 14.2976 11.997 13.3331 12.7999C12.3654 13.6054 11.3972 14.2554 10.6626 14.7042C10.2948 14.9289 9.98197 15.1055 9.75263 15.2278C9.63862 15.2886 9.5412 15.3381 9.4655 15.3743C9.42876 15.3918 9.3897 15.4098 9.35284 15.4251C9.33544 15.4323 9.30814 15.4433 9.27645 15.454C9.2609 15.4592 9.23452 15.4676 9.20183 15.4756L9.20124 15.4757C9.18043 15.4808 9.10172 15.5 9 15.5C8.89828 15.5 8.81957 15.4808 8.79876 15.4757L8.79817 15.4756C8.76548 15.4676 8.7391 15.4592 8.72355 15.454C8.69186 15.4433 8.66456 15.4323 8.64716 15.4251C8.6103 15.4098 8.57124 15.3918 8.5345 15.3743C8.4588 15.3381 8.36138 15.2886 8.24737 15.2278C8.01803 15.1055 7.70519 14.9289 7.33737 14.7042C6.60285 14.2554 5.6346 13.6054 4.66687 12.7999C3.70236 11.997 2.71514 11.0205 1.96376 9.91417C1.21315 8.809 0.666667 7.52738 0.666667 6.13333Z"/>
</svg>
