<svg width="14" height="14" viewBox="0 0 14 14" xmlns="http://www.w3.org/2000/svg">
<path d="M13.5525 0.448002C13.4405 0.335732 13.2718 0.302424 13.1256 0.363702L0.572881 5.62454C0.416703 5.68998 0.320502 5.84876 0.334695 6.01762C0.348888 6.18648 0.470247 6.32693 0.635148 6.36534L6.10427 7.63919C6.20993 7.6638 6.29253 7.74607 6.31759 7.85162L7.62542 13.3632C7.66443 13.5276 7.8047 13.6483 7.97301 13.6622C7.98382 13.6631 7.99457 13.6635 8.00528 13.6635C8.16124 13.6635 8.30367 13.5701 8.3649 13.4243L13.6361 0.875439C13.6976 0.729184 13.6645 0.560271 13.5525 0.448002Z"/>
</svg>
