<svg width="22" height="23" viewBox="0 0 22 23" xmlns="http://www.w3.org/2000/svg">
<path fill-rule="evenodd" clip-rule="evenodd" d="M14.7602 2.42139L13.2349 1.25626C11.9154 0.248095 10.0854 0.24822 8.76585 1.25626L7.2392 2.42167L5.34086 2.67405C3.69346 2.89241 2.39663 4.18788 2.17677 5.83545L1.92204 7.74043L0.755424 9.26622C-0.251772 10.5846 -0.251704 12.4154 0.755492 13.7339L1.92164 15.26L2.17333 17.1593C2.39155 18.8069 3.68723 20.1038 5.33494 20.3237L7.2403 20.5784L8.76597 21.7438C10.0856 22.7521 11.9153 22.752 13.2349 21.7437L14.7615 20.5773L16.6593 20.326C18.3071 20.1078 19.6043 18.8123 19.824 17.1644L20.0778 15.2593L21.2441 13.7339C22.253 12.4137 22.2508 10.5843 21.2446 9.26555L20.0803 7.7393L19.8285 5.83958C19.6103 4.19185 18.3146 2.89489 16.6667 2.67519L14.7602 2.42139ZM8.28565 4.13898C8.14376 4.25998 7.96669 4.34255 7.76908 4.36882L5.60444 4.65661C4.85201 4.75623 4.25952 5.34765 4.15923 6.09979L3.86915 8.26911C3.84606 8.44183 3.77822 8.60553 3.67237 8.74397L2.34473 10.4803C1.88538 11.0819 1.88521 11.9181 2.34473 12.5196L3.67256 14.2574C3.77854 14.3961 3.84638 14.5601 3.86931 14.7332L4.156 16.8966C4.25561 17.6488 4.84696 18.2409 5.59925 18.3412L7.7687 18.6313C7.94128 18.6543 8.10485 18.7221 8.24321 18.8278L9.98003 20.1545C10.5828 20.615 11.4178 20.6151 12.0206 20.1546L13.7148 18.8602C13.8568 18.7389 14.0342 18.6562 14.2322 18.63L16.3968 18.3433C17.1492 18.2437 17.7412 17.6523 17.8415 16.9002L18.1304 14.7314C18.1535 14.5585 18.2213 14.3946 18.3273 14.256L19.655 12.5195C20.1151 11.9174 20.1151 11.0823 19.6546 10.4788L18.3288 8.74086C18.2231 8.60229 18.1554 8.43849 18.1326 8.26572L17.8459 6.10232C17.7463 5.35011 17.155 4.75808 16.4028 4.6577L14.2326 4.3688C14.0598 4.3458 13.8961 4.27804 13.7575 4.17223L12.0207 2.84552C11.418 2.38495 10.5829 2.38485 9.98016 2.84543L8.28565 4.13898Z" />
<path d="M9.16556 9.67621C9.5088 9.39914 9.63828 8.91664 9.4514 8.49395C9.22809 7.98883 8.63757 7.76038 8.13245 7.98369C7.99396 8.04492 7.86484 8.13167 7.75296 8.24236C7.64421 8.34994 7.55801 8.47414 7.49593 8.60778C7.26324 9.10865 7.48064 9.70332 7.98151 9.93601C8.39901 10.13 8.88168 10.0112 9.16556 9.67621Z" />
<path d="M14.0404 9.87372C14.431 9.48321 14.431 8.85005 14.0405 8.45951C13.65 8.06897 13.0168 8.06896 12.6263 8.45947L7.95919 13.1263C7.56865 13.5168 7.56863 14.1499 7.95915 14.5405C8.34966 14.931 8.98282 14.931 9.37336 14.5405L14.0404 9.87372Z"/>
<path d="M14.5546 14.2688C14.7335 13.7464 14.4551 13.1777 13.9326 12.9988C13.5172 12.8565 13.0727 13.0034 12.8179 13.3321C12.4942 13.595 12.358 14.0445 12.5115 14.4571C12.7041 14.9747 13.2799 15.2382 13.7975 15.0456C13.9634 14.9838 14.1181 14.8866 14.2491 14.7563C14.3905 14.616 14.4932 14.4482 14.5546 14.2688Z" />
</svg>
